<svg height="75" viewBox="0 0 75 75" width="75" xmlns="http://www.w3.org/2000/svg" xmlns:xlink="http://www.w3.org/1999/xlink"><filter id="a" height="126.2%" width="126.2%" x="-13.1%"><feOffset dx="0" dy="2" in="SourceAlpha" result="shadowOffsetOuter1"/><feGaussianBlur in="shadowOffsetOuter1" result="shadowBlurOuter1" stdDeviation="2.5"/><feComposite in="shadowBlurOuter1" in2="SourceAlpha" operator="out" result="shadowBlurOuter1"/><feColorMatrix in="shadowBlurOuter1" type="matrix" values="0 0 0 0 0.0588235294   0 0 0 0 0.0901960784   0 0 0 0 0.164705882  0 0 0 0.1 0"/></filter><linearGradient id="b" x1="0%" x2="95.696222%" y1=".002039%" y2="99.997961%"><stop offset="0" stop-color="#c6e7fe"/><stop offset=".17098072" stop-color="#2191f9"/><stop offset=".484400988" stop-color="#1b52ff"/><stop offset=".843474423" stop-color="#8d73fe"/><stop offset="1" stop-color="#a5bcfe"/></linearGradient><g fill="none" fill-rule="evenodd"><g transform="translate(5 3)"><circle cx="32.5" cy="32.5" fill="#000" filter="url(#a)" r="32.5"/><circle cx="32.5" cy="32.5" fill="#fff" fill-rule="evenodd" r="32" stroke="#1f79fc" stroke-opacity=".362298"/></g><g fill-rule="nonzero" transform="translate(23 21)"><path d="m14.9668818 29.9124278h-13.58674423c-.50473421 0-.96743377-.2792756-1.2027641-.7263714-.23502826-.4463467-.20314143-.9862154.08279552-1.4017918l2.70136294-3.9302395c-1.90270465-2.5660241-2.94048728-5.6835937-2.94048728-8.8871433 0-8.24101988 6.70481727-14.94554603 14.94583715-14.94554603 8.2410199 0 14.9458645 6.70452615 14.9458645 14.94554603 0 8.2410199-6.7045262 14.945546-14.9458645 14.945546zm-11.00416101-2.7172851h11.00416101c6.742421 0 12.2282609-5.4858399 12.2282609-12.2282609 0-6.74242103-5.4858399-12.22826088-12.2282609-12.22826088-6.74242103 0-12.22826088 5.48583985-12.22826088 12.22826088 0 2.9070779 1.04545262 5.7288128 2.94433594 7.9439113.40060292.4677947.43722402 1.1463995.08820907 1.6539997z" fill="url(#b)"/><g fill="#1c63fd"><path d="m8.85275136 12.9288383c0 1.1255803.91246314 2.0380435 2.03804344 2.0380435 1.1255804 0 2.0380435-.9124632 2.0380435-2.0380435s-.9124631-2.0380435-2.0380435-2.0380435c-1.1255803 0-2.03804344.9124632-2.03804344 2.0380435z"/><path d="m17.0049253 12.9288383c0 1.1255803.9124631 2.0380435 2.0380435 2.0380435 1.1255803 0 2.0380434-.9124632 2.0380434-2.0380435s-.9124631-2.0380435-2.0380434-2.0380435c-1.1255804 0-2.0380435.9124632-2.0380435 2.0380435z"/></g></g></g></svg>