<svg height="12" viewBox="0 0 12 12" width="12" xmlns="http://www.w3.org/2000/svg"><path d="m6.92852537 5.99974287 4.88622283-4.88623478c.2469865-.24699842.2469865-.65245951 0-.89945793l-.0267533-.02675328c-.2469865-.24698647-.6524595-.24698647-.899446 0l-4.88623475 4.89241781-4.88623478-4.89447484c-.24698646-.24698647-.6524595-.24698647-.89944597 0l-.02676524.02675328c-.25315755.24698647-.25315755.65245951 0 .89944598l4.88624673 4.88830376-4.88624673 4.88622283c-.24698647.2469865-.24698647.6524595 0 .899446l.02676524.0267652c.24698647.2469865.65245951.2469865.89944597 0l4.88623478-4.88624673 4.88624675 4.88624673c.2469865.2469865.6524595.2469865.899446 0l.0267532-.0267652c.2469865-.2469865.2469865-.6524595 0-.899446z" fill="#475569"/></svg>