<svg height="30" viewBox="0 0 30 30" width="30" xmlns="http://www.w3.org/2000/svg" xmlns:xlink="http://www.w3.org/1999/xlink"><linearGradient id="a" x1="50%" x2="50%" y1="0%" y2="100%"><stop offset="0" stop-color="#225bf5"/><stop offset="1" stop-color="#8eaafa"/></linearGradient><g fill="none" fill-rule="evenodd"><path d="m14.8148148 29.6296296c8.1819959 0 14.8148148-6.6328189 14.8148148-14.8148148 0-8.18199613-6.6328189-14.8148148-14.8148148-14.8148148-8.18199613 0-14.8148148 6.63281867-14.8148148 14.8148148 0 8.1819959 6.63281867 14.8148148 14.8148148 14.8148148z" fill="url(#a)" opacity=".3"/><path d="m21.26351 8.65451118c-.1874311-.18743095-.48732-.24366023-.7309808-.13120166l-13.08267881 5.81035918c-.26240331.1124583-.41234806.3748618-.39360497.6560084.0187431.2811462.22491713.5060638.48732042.5810357l5.43549716 1.3495031 1.3495026 5.4354971c.0749721.2624029.2998898.4685767.5810359.4873205h.0562289c.2624032 0 .4873209-.149945.5997791-.393605l5.8103594-13.08267984c.1312026-.22491706.0749713-.50606344-.1124589-.71223748zm-6.1102478 11.54574492-.9933845-3.9735354c-.0562292-.2436606-.24366-.4123482-.4685774-.4685776l-3.97353564-.9933837 9.78389484-4.3483975z" fill="#fff"/></g></svg>