<svg height="14" viewBox="0 0 14 14" width="14" xmlns="http://www.w3.org/2000/svg" xmlns:xlink="http://www.w3.org/1999/xlink"><filter id="a"><feColorMatrix in="SourceGraphic" type="matrix" values="0 0 0 0 1.000000 0 0 0 0 1.000000 0 0 0 0 1.000000 0 0 0 1.000000 0"/></filter><g fill="none" fill-rule="evenodd" filter="url(#a)" transform="translate(-272 -172)"><path d="m11.4784444 10.5933333 2.3364445 2.3368334c.1184178.1169741.185067.276494.185067.4429444s-.0666492.3259703-.185067.4429445c-.1176685.1172457-.2768358.1833441-.4429445.1839444-.1661086-.0006003-.3252759-.0666987-.4429444-.1839444l-2.3356667-2.3360556c-2.5748158 2.1190259-6.33779083 1.9365991-8.69555552-.4215556-1.85230369-1.85261324-2.40644304-4.63850511-1.40408695-7.05893631s3.36387066-3.99888389 5.98364251-3.99950809c3.57699996 0 6.47655556 2.89994444 6.47655556 6.47772222 0 1.53416666-.5413334 2.97966666-1.4758333 4.11599998zm-5.00111106-9.33916664c-2.88322222.00466666-5.21888888 2.34072222-5.22355556 5.22394446 0 2.88477778 2.33877778 5.22394448 5.22355556 5.22394448s5.22316666-2.3391667 5.22316666-5.22394448c0-2.88516666-2.33838888-5.22394446-5.22316666-5.22394446z" fill="#000" fill-rule="nonzero" transform="translate(272 172)"/></g></svg>